# xmcd
# 
# Track frame offsets:
#     150
#     12687
#     35075
#     51895
# 
# Disc length: 889
# 
# Revision: 0
# Processed by: cddbd v1.5.2PL0 Copyright (c) Steve Scherf et al.
# Submitted via: fre:ac v1.0.17
# 
DISCID=33037704
DTITLE=Metronomy - Love Letters Companion CD
DYEAR=2014
DGENRE=
TTITLE0=I'm Aquarius (Demo)
TTITLE1=The Most Imaculate Haircut (8 Track Version)
TTITLE2=Reservoir Part 1
TTITLE3=Call Me (Alternate Version)
EXTD=
EXTT0=
EXTT1=
EXTT2=
EXTT3=
PLAYORDER=
